<svg viewBox="0 0 23 22" fill="none" xmlns="http://www.w3.org/2000/svg">
<path d="M0.75 0.75H3.75L6.75 11.75M6.75 11.75L5.75 15.75H20.75M6.75 11.75H18.75L21.75 2.75H4.295L6.75 11.75ZM6.75 19.75C6.75 20.0152 6.64464 20.2696 6.45711 20.4571C6.26957 20.6446 6.01522 20.75 5.75 20.75C5.48478 20.75 5.23043 20.6446 5.04289 20.4571C4.85536 20.2696 4.75 20.0152 4.75 19.75C4.75 19.4848 4.85536 19.2304 5.04289 19.0429C5.23043 18.8554 5.48478 18.75 5.75 18.75C6.01522 18.75 6.26957 18.8554 6.45711 19.0429C6.64464 19.2304 6.75 19.4848 6.75 19.75ZM20.75 19.75C20.75 20.0152 20.6446 20.2696 20.4571 20.4571C20.2696 20.6446 20.0152 20.75 19.75 20.75C19.4848 20.75 19.2304 20.6446 19.0429 20.4571C18.8554 20.2696 18.75 20.0152 18.75 19.75C18.75 19.4848 18.8554 19.2304 19.0429 19.0429C19.2304 18.8554 19.4848 18.75 19.75 18.75C20.0152 18.75 20.2696 18.8554 20.4571 19.0429C20.6446 19.2304 20.75 19.4848 20.75 19.75Z" stroke="currentColor" stroke-width="1.5" stroke-linecap="square"/>
</svg>
